#!OML:ASF E:/inclinewalkrobotboard/Project1/Captureday1/Session1/subject1.ASF
:FULLY-SPECIFIED
:DEGREES
263
root 0 0 0 1.8432256647878753 -3.8847211993763597 2.184074335910262
lowerback 11.983475992982571 1.1612264573401356 -0.10627989984879949
upperback -4.458463728837442 1.458259605103228 -0.8556296172181891
thorax -11.566150421034244 0.6754131247990331 -1.1289650092439374
lowerneck -6.235453640077788 1.754545042708058 4.834325043768917
upperneck 18.174049458537137 3.288851062283854 -8.490407496816397
head 6.696167288032038 1.223964269629937 -3.293662563191135
rclavicle -2.1440694460427714E-15 -1.1000603324237366E-15
rhumerus 23.252947579654524 17.83430510957885 -48.496674769289925
rradius 74.89500303198399
rwrist 25.81875719247425
rhand -34.81832607271249 -58.1020523974124
rfingers 7.12502
rthumb -7.961072267565546 -88.0124194835729
lclavicle -1.1110954532276113E-15 -8.381023463812705E-16
lhumerus 22.438297110871623 -14.55162133498196 45.76812882081235
lradius 71.3440984800039
lwrist -21.38241303354306
lhand -45.27244631785042 -69.01916480814046
lfingers 7.125020000000012
lthumb -18.04658589014777 -39.7710740798435
rfemur -24.577100913155107 -0.8036026237919844 18.569260801814067
rtibia 45.013972651677626
rfoot -32.95745858475773 -17.87291596966892
rtoes -23.018496309364547
lfemur -26.47651551005768 1.818417675502947 -15.472670540858887
ltibia 44.87331503409509
lfoot -32.3189503209068 3.3586519368878367
ltoes -21.505529305521897
264
root 0 0 0 1.8432210808581702 -3.8847304463403227 2.1840447735166824
lowerback 11.983478736441297 1.1612329779152117 -0.10625145266174607
upperback -4.4584633296660785 1.4582723292358823 -0.8556250230409456
thorax -11.566152447865989 0.6754183936899039 -1.1289783027124087
lowerneck -6.2354537070814535 1.7545457832574127 4.8343294747503975
upperneck 18.174042380175223 3.288851385302438 -8.490410538940738
head 6.69616484216582 1.223964499426725 -3.2936637722026196
rclavicle -2.144109487077902E-15 -1.1000516083162962E-15
rhumerus 23.252962375071284 17.83431753460556 -48.49667298749317
rradius 74.89501546534633
rwrist 25.818757461100038
rhand -34.81832954344142 -58.10206649975426
rfingers 7.12502
rthumb -7.961075662416899 -88.01243480444687
lclavicle -1.111134423374069E-15 -8.380917441455073E-16
lhumerus 22.438320116792013 -14.551659022764941 45.768137569819565
lradius 71.34412534337572
lwrist -21.382394842568857
lhand -45.272449490563076 -69.01914519436367
lfingers 7.125020000000012
lthumb -18.04658897467146 -39.77105557838718
rfemur -24.576982903086105 -0.8035166101299116 18.569398938520628
rtibia 45.013505051037455
rfoot -32.957770628225795 -17.872963356728345
rtoes -23.018477873234882
lfemur -26.47696754642928 1.8185370929953057 -15.47237598469727
ltibia 44.87436335743988
lfoot -32.31852669354427 3.3583704785682373
ltoes -21.50562591512625
265
root 0 0 0 1.8432219105632757 -3.884754472126302 2.184010901345083
lowerback 11.9834836375058 1.161245235997474 -0.10621466478660613
upperback -4.458461437327473 1.4582937253831916 -0.855622197023994
thorax -11.566153983437356 0.6754276952352588 -1.1289993662681936
lowerneck -6.235459899774775 1.7545428684701394 4.834330710940303
upperneck 18.174040612352094 3.288846322293791 -8.490408967675853
head 6.696165312537892 1.2239623440306993 -3.2936636038547027
rclavicle -2.1441493584230375E-15 -1.1000431189556955E-15
rhumerus 23.252997927564707 17.834358293267897 -48.49668858677681
rradius 74.89504470519793
rwrist 25.818738257059735
rhand -34.8183335158256 -58.10207888728861
rfingers 7.12502
rthumb -7.961079620023357 -88.0124481159109
lclavicle -1.1111681002308761E-15 -8.380820731596943E-16
lhumerus 22.438334422828234 -14.551682368961378 45.76814299805414
lradius 71.3441422423158
lwrist -21.382383729670025
lhand -45.27245167937991 -69.01913400142443
lfingers 7.125020000000012
lthumb -18.046591098365003 -39.77104503971408
rfemur -24.57679892149189 -0.8034113803340825 18.56956785533948
rtibia 45.01292386954808
rfoot -32.95816022260896 -17.873012224500968
rtoes -23.01851974226382
lfemur -26.47746813213135 1.8186267926153596 -15.4720887190276
ltibia 44.87514703228654
lfoot -32.318201120727664 3.3582078716476653
ltoes -21.50567518052181
266
root 0 0 0 1.8432270773769646 -3.884788419374103 2.1839757447953057
lowerback 11.983489671480033 1.1612612110611789 -0.1061736480546035
upperback -4.458458528686675 1.4583205644669799 -0.8556209306065926
thorax -11.566154906544845 0.6754395672344014 -1.129025204666007
lowerneck -6.235470460033914 1.754537172315911 4.83432929242778
upperneck 18.17404338441037 3.2888372174718157 -8.490403769428319
head 6.6961681257497085 1.2239583908336975 -3.2936623375046716
rclavicle -2.1441856062262747E-15 -1.1000353418513125E-15
rhumerus 23.25304647099358 17.834417458428376 -48.49671632686186
rradius 74.89508438967044
rwrist 25.818705605004403
rhand -34.81833752200352 -58.102088771640474
rfingers 7.12502
rthumb -7.961083661895572 -88.01245865079858
lclavicle -1.1111945785140213E-15 -8.380739198069822E-16
lhumerus 22.438340035058992 -14.551691510478442 45.76814515917736
lradius 71.34414920918026
lwrist -21.382379592064815
lhand -45.272452809623374 -69.01913083307163
lfingers 7.125020000000012
lthumb -18.0465921879948 -39.77104206992945
rfemur -24.576569733028542 -0.8032971703000036 18.569750835219303
rtibia 45.012288446022126
rfoot -32.95858407901029 -17.873057109342028
rtoes -23.01861059818926
lfemur -26.47796813406255 1.8186849765352413 -15.471826184524007
ltibia 44.87566089152274
lfoot -32.31796998104937 3.358148455767222
ltoes -21.50568638319497
